<mxfile host="65bd71144e">
    <diagram id="_FZFokmnATVGriVZsV8M" name="Page-1">
        <mxGraphModel dx="515" dy="427" grid="1" gridSize="10" guides="1" tooltips="1" connect="1" arrows="1" fold="1" page="1" pageScale="1" pageWidth="850" pageHeight="1100" math="0" shadow="0">
            <root>
                <mxCell id="0"/>
                <mxCell id="1" parent="0"/>
                <mxCell id="2" value="" style="rounded=0;whiteSpace=wrap;html=1;rotation=-90;" vertex="1" parent="1">
                    <mxGeometry x="-95" y="185" width="440" height="70" as="geometry"/>
                </mxCell>
                <mxCell id="21" style="edgeStyle=none;html=1;fontSize=9;fontColor=#FF8000;" edge="1" parent="1" source="9" target="12">
                    <mxGeometry relative="1" as="geometry"/>
                </mxCell>
                <mxCell id="9" value="" style="rounded=1;whiteSpace=wrap;html=1;" vertex="1" parent="1">
                    <mxGeometry x="160" width="460" height="80" as="geometry"/>
                </mxCell>
                <mxCell id="12" value="" style="rounded=0;whiteSpace=wrap;html=1;" vertex="1" parent="1">
                    <mxGeometry x="160" y="80" width="460" height="360" as="geometry"/>
                </mxCell>
                <mxCell id="13" value="&lt;b style=&quot;&quot;&gt;&lt;font style=&quot;font-size: 9px;&quot;&gt;work out&lt;/font&gt;&lt;/b&gt;" style="rounded=1;whiteSpace=wrap;html=1;fontColor=#FF8000;" vertex="1" parent="1">
                    <mxGeometry x="100" y="90" width="50" height="30" as="geometry"/>
                </mxCell>
                <mxCell id="15" value="&lt;font style=&quot;font-size: 10px;&quot;&gt;plan&lt;/font&gt;" style="rounded=1;whiteSpace=wrap;html=1;fontStyle=1" vertex="1" parent="1">
                    <mxGeometry x="105" y="140" width="40" height="35" as="geometry"/>
                </mxCell>
                <mxCell id="17" value="&lt;font style=&quot;font-size: 16px;&quot;&gt;&lt;b&gt;Food&lt;/b&gt;&lt;/font&gt;" style="rounded=1;whiteSpace=wrap;html=1;" vertex="1" parent="1">
                    <mxGeometry x="105" y="200" width="40" height="30" as="geometry"/>
                </mxCell>
                <mxCell id="18" value="&lt;b&gt;&lt;font style=&quot;font-size: 9px;&quot;&gt;your transtion&lt;/font&gt;&lt;/b&gt;" style="rounded=1;whiteSpace=wrap;html=1;" vertex="1" parent="1">
                    <mxGeometry x="105" y="250" width="40" height="40" as="geometry"/>
                </mxCell>
                <mxCell id="22" value="chose week" style="rounded=1;whiteSpace=wrap;html=1;fontSize=9;fontColor=#fcfcfc;" vertex="1" parent="1">
                    <mxGeometry x="200" y="22.5" width="120" height="37.5" as="geometry"/>
                </mxCell>
                <mxCell id="29" value="" style="triangle;whiteSpace=wrap;html=1;labelBackgroundColor=#CCE5FF;fontSize=9;fontColor=#fcfcfc;direction=south;" vertex="1" parent="1">
                    <mxGeometry x="290" y="38.75" width="20" height="11.25" as="geometry"/>
                </mxCell>
                <mxCell id="30" value="&lt;font style=&quot;font-size: 11px;&quot;&gt;&lt;b&gt;img&lt;/b&gt;&lt;/font&gt;" style="ellipse;whiteSpace=wrap;html=1;aspect=fixed;labelBackgroundColor=#000000;fontSize=9;fontColor=#fcfcfc;" vertex="1" parent="1">
                    <mxGeometry x="100" y="22.5" width="50" height="50" as="geometry"/>
                </mxCell>
                <mxCell id="34" value="chise day" style="rounded=1;whiteSpace=wrap;html=1;fontSize=9;fontColor=#fcfcfc;" vertex="1" parent="1">
                    <mxGeometry x="380" y="21.25" width="120" height="37.5" as="geometry"/>
                </mxCell>
                <mxCell id="36" value="" style="triangle;whiteSpace=wrap;html=1;labelBackgroundColor=#CCE5FF;fontSize=9;fontColor=#fcfcfc;direction=south;" vertex="1" parent="1">
                    <mxGeometry x="470" y="36.25" width="20" height="10" as="geometry"/>
                </mxCell>
            </root>
        </mxGraphModel>
    </diagram>
</mxfile>